<?xml version="1.0" standalone="no"?>
<!DOCTYPE svg PUBLIC "-//W3C//DTD SVG 20010904//EN"
 "http://www.w3.org/TR/2001/REC-SVG-20010904/DTD/svg10.dtd">
<svg version="1.0" xmlns="http://www.w3.org/2000/svg"
 width="256.000000pt" height="256.000000pt" viewBox="0 0 256.000000 256.000000"
 preserveAspectRatio="xMidYMid meet">

<g transform="translate(0.000000,256.000000) scale(0.100000,-0.100000)"
fill="#000000" stroke="none">
<path d="M385 2168 c-3 -7 -4 -411 -2 -898 l2 -885 895 0 895 0 0 895 0 895
-893 3 c-709 2 -894 0 -897 -10z m625 -643 c85 -129 158 -235 161 -235 3 0 11
23 18 51 18 71 81 193 134 260 50 63 137 125 206 146 29 9 73 13 121 11 62 -4
87 -11 137 -37 34 -18 69 -41 77 -50 13 -14 12 -19 -5 -40 l-20 -24 -27 20
c-64 47 -116 66 -182 66 -82 0 -142 -25 -210 -89 -114 -106 -179 -249 -189
-413 l-6 -104 -203 305 -203 305 -37 -1 -37 -1 -3 -405 c-1 -223 0 -410 2
-415 2 -6 22 -9 45 -7 l41 4 2 322 3 321 214 -322 c197 -298 216 -323 242
-323 l28 0 3 121 3 121 33 -46 c31 -46 32 -49 32 -156 l0 -110 -80 0 -80 0
-163 244 -162 245 -3 -245 -2 -244 -110 0 -110 0 0 480 0 480 88 0 87 0 155
-235z m380 210 c0 -16 -11 -36 -27 -50 -33 -28 -43 -31 -43 -10 0 11 -11 15
-40 15 l-40 0 0 -74 c0 -63 -5 -84 -35 -147 l-34 -74 -1 183 0 182 110 0 110
0 0 -25z m315 -154 c59 -27 70 -44 50 -75 l-17 -26 -30 21 c-63 46 -168 37
-229 -18 -65 -59 -84 -104 -84 -203 0 -99 19 -144 84 -203 61 -55 166 -64 229
-18 l30 21 17 -26 c21 -32 9 -49 -53 -76 -132 -59 -280 10 -350 161 -38 80
-38 202 -1 281 55 119 142 180 254 180 36 0 76 -8 100 -19z m-417 -434 c4 -80
4 -143 0 -141 -14 9 -31 82 -32 139 -1 62 12 160 20 152 2 -2 8 -69 12 -150z
m576 -221 c15 -24 14 -25 -26 -55 -105 -77 -243 -92 -361 -38 -55 25 -57 27
-57 66 l0 39 69 -35 c58 -30 79 -35 133 -35 67 0 134 22 185 62 33 26 37 25
57 -4z"/>
</g>
</svg>
